<mxfile host="app.diagrams.net" modified="2020-11-05T20:15:23.507Z" agent="5.0 (Macintosh; Intel Mac OS X 10_15_7) AppleWebKit/537.36 (KHTML, like Gecko) Chrome/86.0.4240.111 Safari/537.36" etag="TrNw_UVMEwJVYyUL59Pa" version="13.9.0" type="github">
  <diagram id="shOIHBNTdVXyQENOG2MJ" name="Page-1">
    <mxGraphModel dx="1120" dy="684" grid="1" gridSize="10" guides="1" tooltips="1" connect="1" arrows="1" fold="1" page="1" pageScale="1" pageWidth="850" pageHeight="1100" math="0" shadow="0">
      <root>
        <mxCell id="0" />
        <mxCell id="1" parent="0" />
        <mxCell id="PtWqGTMRqGZ6nkQbnNxm-64" value="" style="rounded=0;whiteSpace=wrap;html=1;strokeWidth=3;opacity=60;dashed=1;fillColor=none;strokeColor=#6c8ebf;" parent="1" vertex="1">
          <mxGeometry x="405" y="250" width="890" height="430" as="geometry" />
        </mxCell>
        <mxCell id="PtWqGTMRqGZ6nkQbnNxm-22" value="" style="rounded=0;whiteSpace=wrap;html=1;dashed=1;fillColor=#d5e8d4;strokeColor=#82b366;opacity=30;strokeWidth=3;" parent="1" vertex="1">
          <mxGeometry x="650" y="300" width="600" height="350" as="geometry" />
        </mxCell>
        <mxCell id="PtWqGTMRqGZ6nkQbnNxm-1" value="&lt;font style=&quot;font-size: 15px&quot;&gt;Application&lt;/font&gt;" style="rounded=1;whiteSpace=wrap;html=1;fillColor=#fff2cc;strokeColor=#d6b656;" parent="1" vertex="1">
          <mxGeometry x="180" y="485" width="90" height="80" as="geometry" />
        </mxCell>
        <mxCell id="PtWqGTMRqGZ6nkQbnNxm-25" value="&lt;font style=&quot;font-size: 15px&quot;&gt;TCP Router&lt;/font&gt;" style="rounded=1;whiteSpace=wrap;html=1;fillColor=#d5e8d4;strokeColor=#82b366;" parent="1" vertex="1">
          <mxGeometry x="800" y="470" width="100" height="110" as="geometry" />
        </mxCell>
        <mxCell id="PtWqGTMRqGZ6nkQbnNxm-28" value="" style="endArrow=classic;html=1;exitX=1;exitY=0.5;exitDx=0;exitDy=0;" parent="1" source="PtWqGTMRqGZ6nkQbnNxm-25" target="PtWqGTMRqGZ6nkQbnNxm-36" edge="1">
          <mxGeometry width="50" height="50" relative="1" as="geometry">
            <mxPoint x="870" y="490" as="sourcePoint" />
            <mxPoint x="965.7819999999999" y="435.98199999999997" as="targetPoint" />
          </mxGeometry>
        </mxCell>
        <mxCell id="PtWqGTMRqGZ6nkQbnNxm-38" value="&lt;font style=&quot;font-size: 20px&quot;&gt;TAS Foundation&lt;/font&gt;" style="text;html=1;strokeColor=none;fillColor=none;align=center;verticalAlign=middle;whiteSpace=wrap;rounded=0;opacity=90;" parent="1" vertex="1">
          <mxGeometry x="653.52" y="310" width="290" height="20" as="geometry" />
        </mxCell>
        <mxCell id="PtWqGTMRqGZ6nkQbnNxm-40" value="&lt;font style=&quot;font-size: 15px&quot;&gt;Load Balancer&lt;/font&gt;" style="points=[[0.015,0.015,0],[0.985,0.015,0],[0.985,0.985,0],[0.015,0.985,0],[0.25,0,0],[0.5,0,0],[0.75,0,0],[1,0.25,0],[1,0.5,0],[1,0.75,0],[0.75,1,0],[0.5,1,0],[0.25,1,0],[0,0.75,0],[0,0.5,0],[0,0.25,0]];verticalLabelPosition=bottom;html=1;verticalAlign=top;aspect=fixed;align=center;pointerEvents=1;shape=mxgraph.cisco19.rect;prIcon=load_balancer;fillColor=#FAFAFA;strokeColor=#990000;opacity=90;" parent="1" vertex="1">
          <mxGeometry x="450" y="485" width="102.4" height="80" as="geometry" />
        </mxCell>
        <mxCell id="PtWqGTMRqGZ6nkQbnNxm-45" value="" style="endArrow=classic;html=1;entryX=0;entryY=0.5;entryDx=0;entryDy=0;entryPerimeter=0;exitX=1;exitY=0.5;exitDx=0;exitDy=0;" parent="1" source="PtWqGTMRqGZ6nkQbnNxm-1" target="PtWqGTMRqGZ6nkQbnNxm-40" edge="1">
          <mxGeometry width="50" height="50" relative="1" as="geometry">
            <mxPoint x="460" y="525" as="sourcePoint" />
            <mxPoint x="510" y="480" as="targetPoint" />
          </mxGeometry>
        </mxCell>
        <mxCell id="PtWqGTMRqGZ6nkQbnNxm-46" value="" style="endArrow=classic;html=1;entryX=0;entryY=0.5;entryDx=0;entryDy=0;exitX=1;exitY=0.5;exitDx=0;exitDy=0;exitPerimeter=0;" parent="1" source="PtWqGTMRqGZ6nkQbnNxm-40" target="PtWqGTMRqGZ6nkQbnNxm-70" edge="1">
          <mxGeometry width="50" height="50" relative="1" as="geometry">
            <mxPoint x="662.4" y="524.5" as="sourcePoint" />
            <mxPoint x="762.4" y="524.5" as="targetPoint" />
          </mxGeometry>
        </mxCell>
        <mxCell id="PtWqGTMRqGZ6nkQbnNxm-65" value="&lt;font style=&quot;font-size: 20px&quot;&gt;IaaS&lt;/font&gt;" style="text;html=1;strokeColor=none;fillColor=none;align=center;verticalAlign=middle;whiteSpace=wrap;rounded=0;opacity=90;" parent="1" vertex="1">
          <mxGeometry x="420" y="270" width="80" height="20" as="geometry" />
        </mxCell>
        <mxCell id="PtWqGTMRqGZ6nkQbnNxm-69" value="" style="ellipse;whiteSpace=wrap;html=1;aspect=fixed;strokeColor=#67AB9F;strokeWidth=3;fillColor=none;" parent="1" vertex="1">
          <mxGeometry x="790" y="492.96" width="17.04" height="17.04" as="geometry" />
        </mxCell>
        <mxCell id="PtWqGTMRqGZ6nkQbnNxm-70" value="" style="ellipse;whiteSpace=wrap;html=1;aspect=fixed;strokeWidth=3;fillColor=none;strokeColor=#6666FF;" parent="1" vertex="1">
          <mxGeometry x="790" y="540" width="17.04" height="17.04" as="geometry" />
        </mxCell>
        <mxCell id="PtWqGTMRqGZ6nkQbnNxm-75" style="edgeStyle=orthogonalEdgeStyle;rounded=0;orthogonalLoop=1;jettySize=auto;html=1;exitX=0.5;exitY=1;exitDx=0;exitDy=0;" parent="1" edge="1">
          <mxGeometry relative="1" as="geometry">
            <mxPoint x="735" y="610" as="sourcePoint" />
            <mxPoint x="735" y="610" as="targetPoint" />
          </mxGeometry>
        </mxCell>
        <mxCell id="YxkPzAn_cyUcMf1df-wO-6" value="" style="group" parent="1" vertex="1" connectable="0">
          <mxGeometry x="953.48" y="430" width="290" height="155" as="geometry" />
        </mxCell>
        <mxCell id="PtWqGTMRqGZ6nkQbnNxm-36" value="" style="rounded=0;whiteSpace=wrap;html=1;fillColor=#dae8fc;strokeColor=#6c8ebf;opacity=90;" parent="YxkPzAn_cyUcMf1df-wO-6" vertex="1">
          <mxGeometry x="76.51999999999998" y="34" width="130" height="120" as="geometry" />
        </mxCell>
        <mxCell id="PtWqGTMRqGZ6nkQbnNxm-39" value="&lt;font style=&quot;font-size: 15px&quot;&gt;MySQL Service Instance &lt;br&gt;(S&lt;/font&gt;&lt;span style=&quot;font-size: 15px&quot;&gt;ervice-gateway access enabled)&lt;/span&gt;" style="text;html=1;strokeColor=none;fillColor=none;align=center;verticalAlign=middle;whiteSpace=wrap;rounded=0;opacity=90;" parent="YxkPzAn_cyUcMf1df-wO-6" vertex="1">
          <mxGeometry width="290" height="20" as="geometry" />
        </mxCell>
        <mxCell id="ddLqtWhAH5JMMC8V2kvr-4" value="" style="shape=image;verticalLabelPosition=bottom;labelBackgroundColor=#ffffff;verticalAlign=top;aspect=fixed;imageAspect=0;image=https://dtb5pzswcit1e.cloudfront.net/assets/images/product_logos/icon_pivotal_mysql@2x.png;" vertex="1" parent="YxkPzAn_cyUcMf1df-wO-6">
          <mxGeometry x="83.52" y="37" width="115" height="115" as="geometry" />
        </mxCell>
        <mxCell id="xWXYSH2qemE91IOcYuPP-11" value="" style="group" parent="1" vertex="1" connectable="0">
          <mxGeometry x="180.00000000000003" y="250" width="225.03999999999996" height="134" as="geometry" />
        </mxCell>
        <mxCell id="xWXYSH2qemE91IOcYuPP-2" value="&lt;div&gt;&lt;br&gt;&lt;/div&gt;&lt;div&gt;&lt;b&gt;TAS ti&lt;/b&gt;&lt;b&gt;le ports:&lt;/b&gt;&lt;/div&gt;A range of ports to facilitate TCP traffic to Apps in Tanzu Application Service." style="text;html=1;strokeColor=none;fillColor=none;align=left;verticalAlign=middle;whiteSpace=wrap;rounded=0;" parent="xWXYSH2qemE91IOcYuPP-11" vertex="1">
          <mxGeometry x="25.039999999999964" width="200" height="70" as="geometry" />
        </mxCell>
        <mxCell id="xWXYSH2qemE91IOcYuPP-3" value="" style="ellipse;whiteSpace=wrap;html=1;aspect=fixed;strokeColor=#67AB9F;strokeWidth=3;fillColor=none;" parent="xWXYSH2qemE91IOcYuPP-11" vertex="1">
          <mxGeometry y="16" width="17.04" height="17.04" as="geometry" />
        </mxCell>
        <mxCell id="xWXYSH2qemE91IOcYuPP-6" value="" style="ellipse;whiteSpace=wrap;html=1;aspect=fixed;strokeWidth=3;fillColor=none;strokeColor=#6666FF;" parent="xWXYSH2qemE91IOcYuPP-11" vertex="1">
          <mxGeometry y="87" width="17.04" height="17.04" as="geometry" />
        </mxCell>
        <mxCell id="xWXYSH2qemE91IOcYuPP-10" value="&lt;div&gt;&lt;br&gt;&lt;/div&gt;&lt;div&gt;&lt;b&gt; MySQL ti&lt;/b&gt;&lt;b&gt;le ports:&lt;/b&gt;&lt;/div&gt;A range of ports for MySQL service instances" style="text;html=1;strokeColor=none;fillColor=none;align=left;verticalAlign=middle;whiteSpace=wrap;rounded=0;" parent="xWXYSH2qemE91IOcYuPP-11" vertex="1">
          <mxGeometry x="24.039999999999964" y="64" width="176" height="70" as="geometry" />
        </mxCell>
      </root>
    </mxGraphModel>
  </diagram>
</mxfile>
